<svg xmlns="http://www.w3.org/2000/svg" xmlns:xlink="http://www.w3.org/1999/xlink" width="190" height="190" viewBox="0 0 190 190">
    <defs>
        <style>
            .cls-1{fill:url(#linear-gradient)}.cls-2{fill:url(#linear-gradient-2)}.cls-3{fill:url(#linear-gradient-3)}.cls-4{fill:none}
        </style>
        <linearGradient id="linear-gradient" x1=".079" x2="1.572" y1="-1.242" y2="3.992" gradientUnits="objectBoundingBox">
            <stop offset="0" stop-color="#ffe59b"/>
            <stop offset=".312" stop-color="#e9bf64"/>
            <stop offset=".399" stop-color="#e3b964"/>
            <stop offset=".626" stop-color="#d8ad64"/>
            <stop offset=".712" stop-color="#d3a865"/>
            <stop offset="1" stop-color="#b18a43"/>
        </linearGradient>
        <linearGradient id="linear-gradient-2" x1=".301" x2=".909" y1="-.457" y2="2.457" xlink:href="#linear-gradient"/>
        <linearGradient id="linear-gradient-3" x1=".42" x2=".609" y1="-.063" y2=".856" xlink:href="#linear-gradient"/>
    </defs>
    <g id="Group_835" data-name="Group 835" transform="translate(-159 -839)">
        <g id="Group_834" data-name="Group 834" transform="translate(195.073 874)">
            <path id="Path_577" d="M15.089 31.088a1.987 1.987 0 0 0 1.782 1.347h.083a1.966 1.966 0 0 0 1.8-1.2l7.296-17.117a1.959 1.959 0 1 0-3.605-1.533l-5.263 12.349-2.072-6.257a1.966 1.966 0 0 0-3.73 1.243z" class="cls-1" data-name="Path 577" transform="translate(12.158 12.284)"/>
            <path id="Path_578" d="M23.737 45.142c10.111 0 18.316-8.474 18.316-18.9S33.827 7.35 23.737 7.35h-.062C13.6 7.371 5.4 15.845 5.4 26.246a19.411 19.411 0 0 0 1.119 6.485 18.5 18.5 0 0 0 17.218 12.411zm0-33.876h.041c7.915.021 14.359 6.734 14.359 14.98 0 8.267-6.465 14.98-14.4 14.98a14.471 14.471 0 0 1-13.488-9.8 15.3 15.3 0 0 1-.891-5.18c-.021-8.267 6.442-14.98 14.379-14.98z" class="cls-2" data-name="Path 578" transform="translate(5.789 7.879)"/>
            <path id="Path_579" d="M107.5 12.212H59.211V1.391A1.392 1.392 0 0 0 57.819 0H1.391A1.392 1.392 0 0 0 0 1.391V35.8a34.971 34.971 0 0 0 9.346 23.432v42.285A10.938 10.938 0 0 0 20.27 112.44h5.67v6A1.556 1.556 0 0 0 27.5 120h15.241a1.556 1.556 0 0 0 1.558-1.558v-6h39v6A1.556 1.556 0 0 0 84.86 120h15.24a1.556 1.556 0 0 0 1.558-1.558v-6h5.794a10.938 10.938 0 0 0 10.924-10.924V23.136A10.9 10.9 0 0 0 107.5 12.212zm-3.7 37.2h-2.908V37.445h5.815v11.963zm-1.557-15.082h-2.908a1.486 1.486 0 0 0-1.1.457 1.521 1.521 0 0 0-.457 1.1v15.079a1.549 1.549 0 0 0 .955 1.433 1.49 1.49 0 0 0 .6.125h2.908v21.723h-2.906a1.49 1.49 0 0 0-.6.125 1.549 1.549 0 0 0-.955 1.433v15.078a1.49 1.49 0 0 0 .125.6 1.622 1.622 0 0 0 .831.831 1.49 1.49 0 0 0 .6.125h2.908v4.59h-77.2V70.571l3.842 2.347a1.376 1.376 0 0 0 1.454 0l6.584-4.029a28 28 0 1 0 27.186-34.6 27.232 27.232 0 0 0-4.9.457V27.58h43.032zm1.557 55.016h-2.908V77.383h5.815v11.963H103.8zM57.425 46.438a16.8 16.8 0 0 1 5.109-1.288v13.043l-7.061-7.061a35.518 35.518 0 0 0 1.952-4.694zm17.508 2.451l-9.283 9.283V45.109a17.381 17.381 0 0 1 9.283 3.78zm-24.278 24.3a17.247 17.247 0 0 1-3.78-9.657h13.457zm11.88-7.456v13.81a17.265 17.265 0 0 1-9.7-4.112zm3.115 0l9.7 9.7a17.2 17.2 0 0 1-9.7 4.112zm11.88 7.456l-9.657-9.657h13.456a17.42 17.42 0 0 1-3.8 9.656zm-9.68-12.794l9.325-9.325a17.244 17.244 0 0 1 4.071 9.325zm-13.977-6.439l6.438 6.438H48.764a35.885 35.885 0 0 0 5.109-6.438zM43.8 64.569a20.417 20.417 0 1 0 14.6-21.848 36.24 36.24 0 0 0 .685-4.777 24.872 24.872 0 1 1-19.417 29.221L41.578 66a20.317 20.317 0 0 0 2.222-1.431zM2.783 2.783h53.645v33c-.083 11.277-6.147 21.7-16.262 27.892l-10.55 6.459-10.55-6.459C8.972 57.508 2.887 47.082 2.8 35.8zm38.4 114.1H29.055v-4.443h12.129zm57.383 0H86.438v-4.443h12.129zm16.719-15.348a7.791 7.791 0 0 1-7.788 7.788H20.27a7.791 7.791 0 0 1-7.788-7.788v-39.25a38.553 38.553 0 0 0 5.109 3.759l4.32 2.638v29.947a1.556 1.556 0 0 0 1.558 1.558H103.8a1.556 1.556 0 0 0 1.558-1.558v-6.147h2.908a1.556 1.556 0 0 0 1.558-1.558V75.846a1.556 1.556 0 0 0-1.558-1.558h-2.908V52.523h2.908a1.556 1.556 0 0 0 1.558-1.558V35.888a1.556 1.556 0 0 0-1.558-1.558h-2.908v-8.286a1.556 1.556 0 0 0-1.558-1.558H59.19v-9.138h48.287a7.791 7.791 0 0 1 7.788 7.788v78.4z" class="cls-3" data-name="Path 579"/>
        </g>
        <path id="Rectangle_358" d="M0 0h190v190H0z" class="cls-4" data-name="Rectangle 358" transform="translate(159 839)"/>
    </g>
</svg>
