<svg xmlns="http://www.w3.org/2000/svg" width="190" height="190" viewBox="0 0 190 190">
    <defs>
        <style>
            .cls-1{fill:url(#linear-gradient)}.cls-2{fill:none}
        </style>
        <linearGradient id="linear-gradient" x1=".268" x2=".67" y1="-.17" y2=".947" gradientUnits="objectBoundingBox">
            <stop offset="0" stop-color="#ffe59b"/>
            <stop offset=".312" stop-color="#e9bf64"/>
            <stop offset=".399" stop-color="#e3b964"/>
            <stop offset=".626" stop-color="#d8ad64"/>
            <stop offset=".712" stop-color="#d3a865"/>
            <stop offset="1" stop-color="#b18a43"/>
        </linearGradient>
    </defs>
    <g id="Group_837" data-name="Group 837" transform="translate(-865 -819)">
        <path id="Path_580" d="M128.433 0H22.79a1.579 1.579 0 0 0-1.581 1.581v64.491a4.63 4.63 0 0 0-3.71-1.9H4.617A4.616 4.616 0 0 0 0 68.791v43.092a4.616 4.616 0 0 0 4.617 4.617H17.5a4.57 4.57 0 0 0 3.942-2.256 66.891 66.891 0 0 0 27.428 5.608 6.245 6.245 0 0 0 1.39.148H75.2c4.132 0 7.59-3.732 7.7-8.306a9.906 9.906 0 0 0-.464-3.162h46a1.579 1.579 0 0 0 1.581-1.581V1.581A1.566 1.566 0 0 0 128.433 0zM24.371 3.183h102.481v12.86H24.371zm29.178 62.172a1.837 1.837 0 0 0 1.476.759l23.886.021c2.108 0 3.837 2.193 3.837 4.912s-1.708 4.912-3.837 4.912a1.813 1.813 0 0 0 0 3.626h3.521c2.171 0 4.006 2.129 4.069 4.743a5.494 5.494 0 0 1-1.455 4.006 3.382 3.382 0 0 1-2.382 1.075h-3.036a1.813 1.813 0 0 0 0 3.626c2.108 0 3.837 2.214 3.837 4.912s-1.708 4.912-3.837 4.912h-4.2a1.813 1.813 0 1 0 0 3.626 3.382 3.382 0 0 1 2.382 1.075 5.566 5.566 0 0 1 1.455 3.985c-.063 2.614-1.9 4.743-4.069 4.743H50.26a2.776 2.776 0 0 1-.717-.084 1.434 1.434 0 0 0-.422-.042H49.1a64.437 64.437 0 0 1-26.985-5.629V71.152c6.767-4.28 13.2-8.412 13.24-8.454a1.813 1.813 0 0 0 .422-.379l22.178-26.964a.73.73 0 0 1 1.181 0 9.038 9.038 0 0 1 1.054 9.4 54.32 54.32 0 0 0-2.89 6.854l-3.983 12.123a1.72 1.72 0 0 0 .232 1.623zm-35.081 4.786v41.722a.967.967 0 0 1-.97.97H4.617a.967.967 0 0 1-.97-.97V68.791a.967.967 0 0 1 .97-.97H17.5a.967.967 0 0 1 .97.97zm108.384 35.228H83.338a8.821 8.821 0 0 0 3.753-7.379 9.314 9.314 0 0 0-1.729-5.481 7.79 7.79 0 0 0 2.3-1.6 9.148 9.148 0 0 0 2.488-6.62 8.533 8.533 0 0 0-5.378-7.889 9.3 9.3 0 0 0 1.623-5.313c0-4.722-3.352-8.559-7.463-8.559l-21.377-.021 3.2-9.74a54.266 54.266 0 0 1 2.72-6.409 12.774 12.774 0 0 0-1.535-13.322 4.321 4.321 0 0 0-6.767.021L33.162 59.831c-.569.379-4.216 2.72-8.749 5.608V19.206h102.481v86.163zM31.37 9.3a1.578 1.578 0 0 1 0 2.235c-.084.063-.169.148-.253.211-.084.042-.19.105-.274.148a2.558 2.558 0 0 1-.3.105 1.627 1.627 0 0 1-.316.042 1.58 1.58 0 0 1-1.117-.464 1.617 1.617 0 0 1-.464-1.117 1.58 1.58 0 0 1 .464-1.117 1.617 1.617 0 0 1 2.26-.043zm13.3 1.117a1.581 1.581 0 1 1-1.581-1.581 1.579 1.579 0 0 1 1.584 1.579zM57.07 9.3a1.617 1.617 0 0 1 .464 1.117 1.58 1.58 0 0 1-.464 1.117c-.084.063-.148.148-.232.211-.105.042-.19.105-.274.148a2.558 2.558 0 0 1-.3.105 1.207 1.207 0 0 1-.632 0 .708.708 0 0 1-.3-.105.694.694 0 0 1-.274-.148 2.233 2.233 0 0 1-.253-.211 1.617 1.617 0 0 1-.464-1.117 1.6 1.6 0 0 1 .021-.316.708.708 0 0 1 .105-.3 1.136 1.136 0 0 1 .148-.274.727.727 0 0 1 .19-.253 2.233 2.233 0 0 1 .253-.211 1.743 1.743 0 0 1 .274-.148c.105-.021.19-.063.3-.084a1.646 1.646 0 0 1 1.438.469zm38.538 67.039a6.007 6.007 0 0 0 5.4 4.09h.274a6 6 0 0 0 5.5-3.626l15.327-36.051a5.979 5.979 0 0 0-11-4.68l-9.15 21.5-2.825-8.538a5.973 5.973 0 0 0-11.348 3.756zm-2.867-27.576a2.142 2.142 0 0 1 .717-.126 2.3 2.3 0 0 1 2.171 1.56l5.9 17.793L114.5 37.505a2.284 2.284 0 0 1 4.216.042 2.288 2.288 0 0 1-.021 1.75l-15.35 36.051a2.274 2.274 0 0 1-2.087 1.391v1.855l-.084-1.855a2.294 2.294 0 0 1-2.066-1.56l-7.8-23.528a2.288 2.288 0 0 1 1.433-2.888zM11.363 100.2a4.153 4.153 0 1 0 4.153 4.153 4.148 4.148 0 0 0-4.153-4.153zm0 5.65a1.5 1.5 0 0 1-1.5-1.5 1.485 1.485 0 0 1 1.5-1.476 1.5 1.5 0 0 1 1.5 1.5 1.485 1.485 0 0 1-1.5 1.48z" class="cls-1" data-name="Path 580" transform="translate(894.706 854)"/>
        <path id="Rectangle_359" d="M0 0h190v190H0z" class="cls-2" data-name="Rectangle 359" transform="translate(865 819)"/>
    </g>
</svg>
