<svg xmlns="http://www.w3.org/2000/svg" xmlns:xlink="http://www.w3.org/1999/xlink" width="190" height="190" viewBox="0 0 190 190">
  <defs>
    <linearGradient id="linear-gradient" x1="0.449" y1="-0.092" x2="0.645" y2="1.155" gradientUnits="objectBoundingBox">
      <stop offset="0" stop-color="#ffe59b"/>
      <stop offset="0.312" stop-color="#e9bf64"/>
      <stop offset="0.399" stop-color="#e3b964"/>
      <stop offset="0.626" stop-color="#d8ad64"/>
      <stop offset="0.712" stop-color="#d3a865"/>
      <stop offset="1" stop-color="#b18a43"/>
    </linearGradient>
  </defs>
  <g id="Group_899" data-name="Group 899" transform="translate(-637 -2527)">
    <path id="Path_631" data-name="Path 631" d="M44.329,46.58a4.156,4.156,0,1,0-4.156-4.156A4.214,4.214,0,0,0,44.329,46.58Zm0-5.714c.866,0,1.385.693,1.558,1.558a1.558,1.558,0,1,1-1.558-1.558Zm35.5,4.675V37.576a1.385,1.385,0,1,1,2.771,0v7.965a1.274,1.274,0,0,1-1.385,1.385A1.366,1.366,0,0,1,79.827,45.541Zm9.177,0V37.576a1.385,1.385,0,1,1,2.771,0v7.965a1.274,1.274,0,0,1-1.385,1.385A1.366,1.366,0,0,1,89,45.541Zm9.177,0V37.576a1.385,1.385,0,1,1,2.771,0v7.965a1.274,1.274,0,0,1-1.385,1.385A1.366,1.366,0,0,1,98.182,45.541Zm9.177,0V37.576a1.385,1.385,0,1,1,2.771,0v7.965a1.274,1.274,0,0,1-1.385,1.385A1.366,1.366,0,0,1,107.359,45.541ZM44.329,67.013a4.156,4.156,0,1,0,4.156,4.156A4.214,4.214,0,0,0,44.329,67.013Zm0,5.714a1.558,1.558,0,0,1,0-3.117c.866,0,1.385.693,1.558,1.558A1.552,1.552,0,0,1,44.329,72.727ZM82.6,66.32v7.965a1.274,1.274,0,0,1-1.385,1.385,1.366,1.366,0,0,1-1.385-1.385V66.32a1.385,1.385,0,1,1,2.771,0Zm9.177,0v7.965a1.274,1.274,0,0,1-1.385,1.385A1.366,1.366,0,0,1,89,74.286V66.32a1.385,1.385,0,1,1,2.771,0Zm9.177,0v7.965a1.274,1.274,0,0,1-1.385,1.385,1.366,1.366,0,0,1-1.385-1.385V66.32a1.385,1.385,0,1,1,2.771,0Zm7.792-1.385a1.366,1.366,0,0,1,1.385,1.385v7.965a1.274,1.274,0,0,1-1.385,1.385,1.366,1.366,0,0,1-1.385-1.385V66.32A1.366,1.366,0,0,1,108.745,64.935ZM44.329,95.758a4.156,4.156,0,1,0,4.156,4.156A4.214,4.214,0,0,0,44.329,95.758Zm0,5.714a1.558,1.558,0,0,1,0-3.117c.866,0,1.385.693,1.558,1.558A1.552,1.552,0,0,1,44.329,101.472ZM82.6,95.065v7.965a1.274,1.274,0,0,1-1.385,1.385,1.366,1.366,0,0,1-1.385-1.385V95.065a1.385,1.385,0,1,1,2.771,0Zm9.177,0v7.965a1.274,1.274,0,0,1-1.385,1.385A1.366,1.366,0,0,1,89,103.03V95.065a1.385,1.385,0,1,1,2.771,0Zm9.177,0v7.965a1.274,1.274,0,0,1-1.385,1.385,1.366,1.366,0,0,1-1.385-1.385V95.065a1.385,1.385,0,1,1,2.771,0Zm7.792-1.385a1.366,1.366,0,0,1,1.385,1.385v7.965a1.274,1.274,0,0,1-1.385,1.385,1.366,1.366,0,0,1-1.385-1.385V95.065A1.366,1.366,0,0,1,108.745,93.68ZM26.84,21.991c2.771-1.039,4.5-3.117,4.5-5.714A5.591,5.591,0,0,0,29.091,11.6,7.939,7.939,0,0,0,24.675,9.87h1.472V6.753H23.03v3c-.346-.017-.658-.052-1.039-.052-.294,0-.571.017-.866.017V6.753H18.009V9.87h.139a19.7,19.7,0,0,0-2.39.346V35.844c.537.087,1.316.173,2.251.242v2.874h3.117V36.19c.675,0,1.3-.035,1.9-.069v2.84h3.117V35.844H25.3a9.135,9.135,0,0,0,4.658-2.078,6.644,6.644,0,0,0,2.251-5.195C32.208,24.589,29.264,22.684,26.84,21.991Zm-4.5-9.7c3.463,0,5.714,1.212,5.714,4.329,0,2.424-2.078,4.329-5.714,4.329H19.394V12.468C19.913,12.468,20.779,12.294,22.338,12.294Zm-.346,21.3a12.32,12.32,0,0,1-2.771-.173V23.55h2.771c3.636,0,6.753,1.385,6.753,5.022C28.745,32.381,25.455,33.593,21.991,33.593Zm97.316,22.338a1.366,1.366,0,0,0,1.385-1.385V31.515a1.663,1.663,0,0,0-1.558-1.212H43.619a22.7,22.7,0,0,0,1.4-7.792,22.449,22.449,0,1,0-13.68,20.727V54.545a1.366,1.366,0,0,0,1.385,1.385h8.831v2.944h-9a1.366,1.366,0,0,0-1.385,1.385V83.29a1.366,1.366,0,0,0,1.385,1.385h9v2.944h-9A1.366,1.366,0,0,0,31.169,89v23.03a1.366,1.366,0,0,0,1.385,1.385h7.619v5.195A1.366,1.366,0,0,0,41.558,120h9.177a1.274,1.274,0,0,0,1.385-1.385V113.42H99.567v5.195A1.366,1.366,0,0,0,100.952,120h9.177c.693,0,1.212-.519,1.385-1.385V113.42h7.619a1.366,1.366,0,0,0,1.385-1.385V89a1.366,1.366,0,0,0-1.385-1.385h-9V84.675h9a1.366,1.366,0,0,0,1.385-1.385V60.26a1.366,1.366,0,0,0-1.385-1.385h-9V55.931ZM49.351,117.4H42.944V113.42h6.407Zm59.394,0h-6.407V113.42h6.407Zm9.177-6.58h-7.152a1.42,1.42,0,0,0-.641-.173h-9.177a1.326,1.326,0,0,0-.658.173H51.377a1.42,1.42,0,0,0-.641-.173H41.558a1.326,1.326,0,0,0-.658.173H33.939V90.39h83.983Zm-10.39-23.2h-63.2V84.675h63.2Zm10.39-5.541h-8.537a1.42,1.42,0,0,0-.641-.173h-65.8a1.326,1.326,0,0,0-.658.173H33.939V61.645h83.983Zm-73.593-23.2V55.931h63.2v2.944ZM2.6,22.511A19.913,19.913,0,1,1,22.511,42.424,19.916,19.916,0,0,1,2.6,22.511ZM33.939,41.9a22.381,22.381,0,0,0,8.537-9h75.273V53.333h-8.364a1.42,1.42,0,0,0-.641-.173h-65.8a1.326,1.326,0,0,0-.658.173H33.939Z" transform="translate(672 2562)" fill="url(#linear-gradient)"/>
    <rect id="Rectangle_361" data-name="Rectangle 361" width="190" height="190" transform="translate(637 2527)" fill="none"/>
  </g>
</svg>
