<svg xmlns="http://www.w3.org/2000/svg" xmlns:xlink="http://www.w3.org/1999/xlink" width="190" height="190" viewBox="0 0 190 190">
  <defs>
    <linearGradient id="linear-gradient" x1="0.386" y1="-0.202" x2="0.617" y2="1.246" gradientUnits="objectBoundingBox">
      <stop offset="0" stop-color="#ffe59b"/>
      <stop offset="0.312" stop-color="#e9bf64"/>
      <stop offset="0.399" stop-color="#e3b964"/>
      <stop offset="0.626" stop-color="#d8ad64"/>
      <stop offset="0.712" stop-color="#d3a865"/>
      <stop offset="1" stop-color="#b18a43"/>
    </linearGradient>
  </defs>
  <g id="Group_898" data-name="Group 898" transform="translate(-1096 -2527)">
    <path id="Path_632" data-name="Path 632" d="M123.2,21.887H98.313V7.59A1.518,1.518,0,0,0,96.9,6.178H82.251V1.412A1.518,1.518,0,0,0,80.839,0h-35.3a1.518,1.518,0,0,0-1.412,1.412V6.178H29.3A1.518,1.518,0,0,0,27.888,7.59v6.725a1.758,1.758,0,0,0-.177-.194A16.15,16.15,0,0,0,16.238,9.355,16.462,16.462,0,0,0,4.766,14.12,16.15,16.15,0,0,0,0,25.593,16.429,16.429,0,0,0,10.767,40.949V63.718H3.707a1.206,1.206,0,0,0-1.236,1.236v9.531A1.206,1.206,0,0,0,3.707,75.72H8.649v2.295H3.707A1.206,1.206,0,0,0,2.471,79.25v7.943a1.348,1.348,0,0,0,.353.883,1.348,1.348,0,0,0,.883.353H20.651c.353,0,.53,0,.706-.176a1.348,1.348,0,0,0,.353-.883V40.949a16.39,16.39,0,0,0,5.648-3.512V66.013c0,6.531,3.354,12.532,8.472,15.356l25.946,14.3a1.5,1.5,0,0,0,1.412,0l25.946-14.3a17.149,17.149,0,0,0,8.384-14.12h4.324v5.966a6.926,6.926,0,1,0,2.824.018V67.248H123.2a1.518,1.518,0,0,0,1.412-1.412V51.716c0-.018-.018-.053-.018-.071,0-.035.018-.071.018-.106V23.3A1.519,1.519,0,0,0,123.2,21.887ZM107.315,80.133a4.06,4.06,0,1,1-4.06-4.06A3.994,3.994,0,0,1,107.315,80.133ZM84.9,38.831h36.889v11.3H84.9Zm36.889-2.824H84.9v-11.3h36.889ZM20.3,38.654q-.265,0-.53.53a1.348,1.348,0,0,0-.353.883V86.134H5.119V80.662h4.942A1.206,1.206,0,0,0,11.3,79.427V74.485a1.206,1.206,0,0,0-1.236-1.236H5.119V66.366h7.06a1.206,1.206,0,0,0,1.236-1.236V40.066a1.327,1.327,0,0,0-.883-1.236A13.983,13.983,0,0,1,2.648,25.593a13.479,13.479,0,0,1,4.06-9.708,13.637,13.637,0,0,1,19.415,0,13.479,13.479,0,0,1,4.06,9.708A13.769,13.769,0,0,1,20.3,38.654ZM88.076,78.9,62.659,92.841,37.242,78.9c-4.236-2.295-7.06-7.413-7.06-12.885V33.906a16.046,16.046,0,0,0,.53-15.585V9.178h14.65a1.518,1.518,0,0,0,1.412-1.412V3H79.25V7.766a1.518,1.518,0,0,0,1.412,1.412h14.65V21.887h-12A1.518,1.518,0,0,0,81.9,23.3V51.186c0,.176-.177.353-.177.53v14.12a1.518,1.518,0,0,0,1.412,1.412h12A14.9,14.9,0,0,1,88.076,78.9Zm33.712-14.473H84.9v-11.3h36.889ZM62.129,24.534l-4.942,9.531a1.327,1.327,0,0,1-1.236.883,1.176,1.176,0,0,1-1.236-.883l-2.471-6.354a1.344,1.344,0,0,1,2.471-1.059l1.412,3.354,3.53-6.884a1.423,1.423,0,0,1,2.471,1.412Zm-4.942-7.943A12.2,12.2,0,0,0,45.009,28.77a11.866,11.866,0,0,0,.706,4.236A12.2,12.2,0,1,0,57.187,16.591Zm0,21.534a9.52,9.52,0,0,1-8.825-6.178,9.995,9.995,0,0,1-.53-3.177,9.355,9.355,0,1,1,9.355,9.355Zm4.942,17.827-4.942,9.531a1.327,1.327,0,0,1-1.236.883,1.176,1.176,0,0,1-1.236-.883l-2.471-6.354a1.344,1.344,0,1,1,2.471-1.059l1.412,3.354,3.53-6.884a1.423,1.423,0,0,1,2.471,1.412Zm-4.942-7.766A12.2,12.2,0,0,0,45.009,60.364a11.866,11.866,0,0,0,.706,4.236A12.2,12.2,0,1,0,57.187,48.186Zm0,21.357a9.52,9.52,0,0,1-8.825-6.178,9.995,9.995,0,0,1-.53-3.177,9.355,9.355,0,1,1,9.355,9.355ZM16.415,15.709a4.236,4.236,0,0,0,0,8.472,5.007,5.007,0,0,0,3-1.236,4.243,4.243,0,0,0-3-7.237Zm-.177,5.825a1.582,1.582,0,0,1-1.589-1.589c0-.353.353-.883.353-1.059a1.6,1.6,0,0,1,1.236-.53,1.589,1.589,0,1,1,0,3.177Z" transform="translate(1129 2586.397)" fill="url(#linear-gradient)"/>
    <rect id="Rectangle_362" data-name="Rectangle 362" width="190" height="190" transform="translate(1096 2527)" fill="none"/>
  </g>
</svg>
