<?xml version="1.0" encoding="utf-8"?>
<!-- Generator: Adobe Illustrator 24.2.0, SVG Export Plug-In . SVG Version: 6.00 Build 0)  -->
<svg version="1.1" id="ICONS" xmlns="http://www.w3.org/2000/svg" xmlns:xlink="http://www.w3.org/1999/xlink" x="0px" y="0px"
	 viewBox="0 0 190 190" style="enable-background:new 0 0 190 190;" xml:space="preserve">
<style type="text/css">
	.st0{fill:url(#Path_577_1_);}
	.st1{fill:url(#SVGID_1_);}
	.st2{fill:url(#SVGID_2_);}
	.st3{fill:url(#SVGID_3_);}
	.st4{fill:url(#SVGID_4_);}
	.st5{fill:url(#SVGID_5_);}
	.st6{fill:url(#SVGID_6_);}
	.st7{fill:url(#SVGID_7_);}
	.st8{fill:url(#SVGID_8_);}
	.st9{fill:url(#SVGID_9_);}
	.st10{fill:url(#SVGID_10_);}
	.st11{fill:url(#SVGID_11_);}
	.st12{fill:none;}
</style>
<g>
	
		<linearGradient id="Path_577_1_" gradientUnits="userSpaceOnUse" x1="8.8220768" y1="154.6398621" x2="152.4028625" y2="11.0590649" gradientTransform="matrix(1 0 0 -1 0 189.6900635)">
		<stop  offset="0" style="stop-color:#FFE59B"/>
		<stop  offset="0.312" style="stop-color:#E9BF64"/>
		<stop  offset="0.399" style="stop-color:#E3B964"/>
		<stop  offset="0.626" style="stop-color:#D8AD64"/>
		<stop  offset="0.7120001" style="stop-color:#D3A865"/>
		<stop  offset="1" style="stop-color:#B18A43"/>
	</linearGradient>
	<path id="Path_577_2_" class="st0" d="M60.6543274,93.8976364c-0.3149605-0.9448776,0.3149643-1.8897629,1.2598419-2.5196762
		c0.9448853-0.3149643,2.2047272,0.3149567,2.5196838,1.2598343l1.8897705,5.9842529l5.0393677-11.9684982l0,0
		c0.3149643-0.9448853,1.5748062-1.2598419,2.5196838-0.9448853c0.9448776,0.3149643,1.2598419,1.5748062,0.9448776,2.5196838
		l-6.9291306,16.6929169c-0.3149567,0.629921-0.9448776,1.2598419-1.8897629,1.2598419l0,0
		c-0.629921,0-1.5748062-0.6299286-1.5748062-1.2598419L60.6543274,93.8976364z"/>
	
		<linearGradient id="SVGID_1_" gradientUnits="userSpaceOnUse" x1="41.2200012" y1="187.0377808" x2="184.8007812" y2="43.4569778" gradientTransform="matrix(1 0 0 -1 0 189.6900635)">
		<stop  offset="0" style="stop-color:#FFE59B"/>
		<stop  offset="0.312" style="stop-color:#E9BF64"/>
		<stop  offset="0.399" style="stop-color:#E3B964"/>
		<stop  offset="0.626" style="stop-color:#D8AD64"/>
		<stop  offset="0.7120001" style="stop-color:#D3A865"/>
		<stop  offset="1" style="stop-color:#B18A43"/>
	</linearGradient>
	<circle class="st1" cx="84.9062958" cy="46.3385849" r="2.204726"/>
	
		<linearGradient id="SVGID_2_" gradientUnits="userSpaceOnUse" x1="24.5270805" y1="170.3448639" x2="168.1078796" y2="26.7640781" gradientTransform="matrix(1 0 0 -1 0 189.6900635)">
		<stop  offset="0" style="stop-color:#FFE59B"/>
		<stop  offset="0.312" style="stop-color:#E9BF64"/>
		<stop  offset="0.399" style="stop-color:#E3B964"/>
		<stop  offset="0.626" style="stop-color:#D8AD64"/>
		<stop  offset="0.7120001" style="stop-color:#D3A865"/>
		<stop  offset="1" style="stop-color:#B18A43"/>
	</linearGradient>
	<circle class="st2" cx="51.5204697" cy="46.3385849" r="2.2047243"/>
	<g>
		
			<linearGradient id="SVGID_3_" gradientUnits="userSpaceOnUse" x1="7.9914942" y1="153.8095856" x2="151.5726013" y2="10.2284746" gradientTransform="matrix(1 0 0 -1 0 189.6900635)">
			<stop  offset="0" style="stop-color:#FFE59B"/>
			<stop  offset="0.312" style="stop-color:#E9BF64"/>
			<stop  offset="0.399" style="stop-color:#E3B964"/>
			<stop  offset="0.626" style="stop-color:#D8AD64"/>
			<stop  offset="0.7120001" style="stop-color:#D3A865"/>
			<stop  offset="1" style="stop-color:#B18A43"/>
		</linearGradient>
		<path class="st3" d="M67.8984222,116.8897629c11.6535492,0,21.1023636-9.448822,21.1023636-21.1023636
			s-9.448822-21.1023636-21.1023712-21.1023636s-21.1023598,9.4488144-21.1023598,21.1023636
			C46.7960587,107.4409409,56.2448769,116.8897629,67.8984222,116.8897629z M67.8984222,78.7795334
			c9.448822,0,17.3228378,7.5590515,17.3228378,17.3228302s-7.5590515,17.3228378-17.3228378,17.3228378
			s-17.322834-7.5590515-17.322834-17.3228378S58.449604,78.7795334,67.8984222,78.7795334z"/>
		
			<linearGradient id="SVGID_4_" gradientUnits="userSpaceOnUse" x1="8.3851881" y1="154.2032776" x2="151.9663086" y2="10.6221781" gradientTransform="matrix(1 0 0 -1 0 189.6900635)">
			<stop  offset="0" style="stop-color:#FFE59B"/>
			<stop  offset="0.312" style="stop-color:#E9BF64"/>
			<stop  offset="0.399" style="stop-color:#E3B964"/>
			<stop  offset="0.626" style="stop-color:#D8AD64"/>
			<stop  offset="0.7120001" style="stop-color:#D3A865"/>
			<stop  offset="1" style="stop-color:#B18A43"/>
		</linearGradient>
		<path class="st4" d="M95.2999954,35H40.4968452c-3.7795258,0-6.9291306,3.1496086-6.9291306,6.9291344v106.1417389
			c0,3.7795258,3.1496048,6.9291229,6.9291306,6.9291229h54.8031502c3.7795334,0,6.9291382-3.1495972,6.9291382-6.9291229
			V41.9291344C102.2291336,38.1496086,99.0795288,35,95.2999954,35z M40.4968452,38.7795296h54.8031502
			c1.8897629,0,3.1496048,1.5748024,3.1496048,3.1496048v11.3385849H37.3472404V41.9291344
			C37.3472404,40.354332,38.6070862,38.7795296,40.4968452,38.7795296z M98.4496002,57.047245v75.9055176H37.3472404V57.047245
			H98.4496002z M95.2999954,151.2204742H40.4968452c-1.8897629,0-3.1496048-1.5747986-3.1496048-3.1495972v-11.3385773h61.1023598
			v11.3385773C98.4496002,149.9606323,97.1897583,151.2204742,95.2999954,151.2204742z"/>
		
			<linearGradient id="SVGID_5_" gradientUnits="userSpaceOnUse" x1="-15.0004778" y1="130.8173065" x2="128.5803223" y2="-12.7634792" gradientTransform="matrix(1 0 0 -1 0 189.6900635)">
			<stop  offset="0" style="stop-color:#FFE59B"/>
			<stop  offset="0.312" style="stop-color:#E9BF64"/>
			<stop  offset="0.399" style="stop-color:#E3B964"/>
			<stop  offset="0.626" style="stop-color:#D8AD64"/>
			<stop  offset="0.7120001" style="stop-color:#D3A865"/>
			<stop  offset="1" style="stop-color:#B18A43"/>
		</linearGradient>
		<path class="st5" d="M79.2370071,142.0866089H60.9692917c-0.9448814,0-1.8897667,0.9448853-1.8897667,1.8897705
			c0,0.94487,0.9448853,1.8897552,1.8897667,1.8897552h18.2677155c0.9448776,0,1.8897629-0.9448853,1.8897629-1.8897552
			C81.12677,143.0314941,80.1818848,142.0866089,79.2370071,142.0866089z"/>
		
			<linearGradient id="SVGID_6_" gradientUnits="userSpaceOnUse" x1="32.7160568" y1="178.5338287" x2="176.2968597" y2="34.9530563" gradientTransform="matrix(1 0 0 -1 0 189.6900635)">
			<stop  offset="0" style="stop-color:#FFE59B"/>
			<stop  offset="0.312" style="stop-color:#E9BF64"/>
			<stop  offset="0.399" style="stop-color:#E3B964"/>
			<stop  offset="0.626" style="stop-color:#D8AD64"/>
			<stop  offset="0.7120001" style="stop-color:#D3A865"/>
			<stop  offset="1" style="stop-color:#B18A43"/>
		</linearGradient>
		<path class="st6" d="M59.3944855,48.2283478H76.402359c0.9448776,0,1.8897629-0.9448853,1.8897629-1.8897629
			c0-0.9448814-0.9448776-1.8897667-1.8897629-1.8897667H59.3944855c-0.9448814,0-1.8897667,0.9448853-1.8897667,1.8897667
			C57.5047188,47.2834625,58.449604,48.2283478,59.3944855,48.2283478z"/>
		
			<linearGradient id="SVGID_7_" gradientUnits="userSpaceOnUse" x1="62.5192032" y1="208.3369904" x2="206.0999908" y2="64.7561951" gradientTransform="matrix(1 0 0 -1 0 189.6900635)">
			<stop  offset="0" style="stop-color:#FFE59B"/>
			<stop  offset="0.312" style="stop-color:#E9BF64"/>
			<stop  offset="0.399" style="stop-color:#E3B964"/>
			<stop  offset="0.626" style="stop-color:#D8AD64"/>
			<stop  offset="0.7120001" style="stop-color:#D3A865"/>
			<stop  offset="1" style="stop-color:#B18A43"/>
		</linearGradient>
		<path class="st7" d="M116.7173157,68.0708694h9.7637787c0.9448776,0,1.8897552-0.9448853,1.8897552-1.8897705V47.5984268
			h14.4881897c0.94487,3.1496048,3.7795258,5.3543282,6.9291382,5.3543282c4.0944824,0,7.2440796-3.1496048,7.2440796-7.2440948
			s-3.1495972-7.2440948-7.2440796-7.2440948c-3.4645691,0-6.2992249,2.2047234-6.9291382,5.354332h-16.3779602
			c-0.9448776,0-1.8897552,0.9448814-1.8897552,1.8897629v18.5826759h-7.8740158
			c-0.9448853,0-1.8897629,0.9448853-1.8897629,1.8897629C114.8275452,67.1259842,115.772438,68.0708694,116.7173157,68.0708694z
			 M149.7881775,42.2440948c1.8897705,0,3.4645691,1.5748024,3.4645691,3.4645653s-1.5747986,3.4645691-3.4645691,3.4645691
			c-1.8897552,0-3.4645538-1.5748024-3.4645538-3.4645653C146.3236237,43.8188972,147.8984222,42.2440948,149.7881775,42.2440948z"
			/>
		
			<linearGradient id="SVGID_8_" gradientUnits="userSpaceOnUse" x1="53.2092438" y1="199.0270233" x2="196.7900391" y2="55.4462318" gradientTransform="matrix(1 0 0 -1 0 189.6900635)">
			<stop  offset="0" style="stop-color:#FFE59B"/>
			<stop  offset="0.312" style="stop-color:#E9BF64"/>
			<stop  offset="0.399" style="stop-color:#E3B964"/>
			<stop  offset="0.626" style="stop-color:#D8AD64"/>
			<stop  offset="0.7120001" style="stop-color:#D3A865"/>
			<stop  offset="1" style="stop-color:#B18A43"/>
		</linearGradient>
		<path class="st8" d="M149.7881775,60.8267708c-3.4645538,0-6.2992096,2.5196877-7.2440796,5.6692924h-6.2992249
			c-0.94487,0-1.8897552,0.9448853-1.8897552,1.8897629v10.3937073H116.402359
			c-0.9448776,0-1.8897552,0.9448776-1.8897552,1.8897629c0,0.9448776,0.9448776,1.8897629,1.8897552,1.8897629h19.842514
			c0.9448853,0,1.8897705-0.9448776,1.8897705-1.8897629V70.275589h4.4094543
			c0.94487,3.1496124,3.7795258,5.354332,6.9291229,5.354332c4.0944977,0,7.2440948-3.1496048,7.2440948-7.2440948
			C157.0322876,63.9763794,153.8826752,60.8267708,149.7881775,60.8267708z M149.7881775,71.5354309
			c-1.8897552,0-3.4645538-1.5747986-3.4645538-3.4645691c0-1.8897629,1.5747986-3.4645691,3.4645538-3.4645691
			c1.8897705,0,3.4645691,1.5748062,3.4645691,3.4645691C153.2527618,69.9606323,151.677948,71.5354309,149.7881775,71.5354309z"/>
		
			<linearGradient id="SVGID_9_" gradientUnits="userSpaceOnUse" x1="42.996273" y1="188.8140564" x2="186.5770569" y2="45.2329559" gradientTransform="matrix(1 0 0 -1 0 189.6900635)">
			<stop  offset="0" style="stop-color:#FFE59B"/>
			<stop  offset="0.312" style="stop-color:#E9BF64"/>
			<stop  offset="0.399" style="stop-color:#E3B964"/>
			<stop  offset="0.626" style="stop-color:#D8AD64"/>
			<stop  offset="0.7120001" style="stop-color:#D3A865"/>
			<stop  offset="1" style="stop-color:#B18A43"/>
		</linearGradient>
		<path class="st9" d="M149.7881775,87.2834625c-3.4645538,0-6.2992096,2.5196838-7.2440796,5.6692886H116.402359
			c-0.9448776,0-1.8897552,0.9448853-1.8897552,1.8897705c0,0.9448776,0.9448776,1.8897629,1.8897552,1.8897629h26.1417389
			c0.94487,3.1496048,3.7795258,5.354332,6.9291229,5.354332c4.0944977,0,7.2440948-3.1496048,7.2440948-7.2440948
			C156.7173157,90.7480392,153.8826752,87.2834625,149.7881775,87.2834625z M149.7881775,98.3070908
			c-1.8897552,0-3.4645538-1.5748062-3.4645538-3.4645691c0-1.8897705,1.5747986-3.4645691,3.4645538-3.4645691
			c1.8897705,0,3.4645691,1.5747986,3.4645691,3.4645691C153.2527466,96.7322845,151.677948,98.3070908,149.7881775,98.3070908z"/>
		
			<linearGradient id="SVGID_10_" gradientUnits="userSpaceOnUse" x1="32.9127502" y1="178.7308502" x2="176.493866" y2="35.1497383" gradientTransform="matrix(1 0 0 -1 0 189.6900635)">
			<stop  offset="0" style="stop-color:#FFE59B"/>
			<stop  offset="0.312" style="stop-color:#E9BF64"/>
			<stop  offset="0.399" style="stop-color:#E3B964"/>
			<stop  offset="0.626" style="stop-color:#D8AD64"/>
			<stop  offset="0.7120001" style="stop-color:#D3A865"/>
			<stop  offset="1" style="stop-color:#B18A43"/>
		</linearGradient>
		<path class="st10" d="M149.7881775,114.0551224c-3.4645538,0-6.2992096,2.2047195-6.9291229,5.354332h-4.4094543v-10.3936996
			c0-0.9448776-0.94487-1.8897629-1.8897552-1.8897629h-19.842514c-0.9448776,0-1.8897629,0.9448776-1.8897629,1.8897629
			c0,0.9448776,0.9448853,1.8897629,1.8897629,1.8897629h17.9527588v10.3936996c0,0.9448776,0.94487,1.8897629,1.8897552,1.8897629
			h6.2992096c0.9448853,3.1496124,3.779541,5.3543243,6.9291382,5.3543243c4.0944824,0,7.2440948-3.1496048,7.2440948-7.2440872
			C157.0322876,117.2047272,153.8826752,114.0551224,149.7881775,114.0551224z M149.7881775,124.7637787
			c-1.8897552,0-3.4645538-1.5748062-3.4645538-3.4645691s1.5747986-3.4645691,3.4645538-3.4645691
			c1.8897705,0,3.4645691,1.5748062,3.4645691,3.4645691C153.2527618,123.1889725,151.677948,124.7637787,149.7881775,124.7637787z"
			/>
		
			<linearGradient id="SVGID_11_" gradientUnits="userSpaceOnUse" x1="20.8274288" y1="166.6453094" x2="164.4082184" y2="23.064415" gradientTransform="matrix(1 0 0 -1 0 189.6900635)">
			<stop  offset="0" style="stop-color:#FFE59B"/>
			<stop  offset="0.312" style="stop-color:#E9BF64"/>
			<stop  offset="0.399" style="stop-color:#E3B964"/>
			<stop  offset="0.626" style="stop-color:#D8AD64"/>
			<stop  offset="0.7120001" style="stop-color:#D3A865"/>
			<stop  offset="1" style="stop-color:#B18A43"/>
		</linearGradient>
		<path class="st11" d="M149.7881775,136.7322845c-3.4645538,0-6.2992096,2.2047272-6.9291229,5.3543243h-14.4881897v-18.2677078
			c0-0.9448776-0.9448776-1.8897629-1.8897629-1.8897629h-9.7637711c-0.9448776,0-1.8897629,0.9448776-1.8897629,1.8897629
			c0,0.9448929,0.9448853,1.8897552,1.8897629,1.8897552h7.8740158v18.5826797c0,0.9448853,0.9448776,1.8897705,1.8897552,1.8897705
			h16.3779526c0.9448853,3.1495972,3.779541,5.3543243,6.9291382,5.3543243c4.0944824,0,7.2440948-3.1495972,7.2440948-7.2440948
			C157.0322876,140.1968536,153.8826752,136.7322845,149.7881775,136.7322845z M149.7881775,147.7559052
			c-1.8897552,0-3.4645538-1.5747986-3.4645538-3.4645691c0-1.8897552,1.5747986-3.4645538,3.4645538-3.4645538
			c1.8897705,0,3.4645691,1.5747986,3.4645691,3.4645538C153.2527466,146.1811066,151.677948,147.7559052,149.7881775,147.7559052z"
			/>
	</g>
</g>
<g id="Group_835" transform="translate(-159 -839)">
	<path id="Rectangle_358" class="st12" d="M159,839h190v190H159V839z"/>
</g>
</svg>
