<?xml version="1.0" encoding="UTF-8"?>
<svg width="709px" height="871px" viewBox="0 0 709 871" version="1.1" xmlns="http://www.w3.org/2000/svg" xmlns:xlink="http://www.w3.org/1999/xlink">
    <!-- Generator: Sketch 62 (91390) - https://sketch.com -->
    <title>Apple_logo_grey</title>
    <desc>Created with Sketch.</desc>
    <g id="Page-1" stroke="none" stroke-width="1" fill="none" fill-rule="evenodd">
        <g id="Apple_logo_grey" transform="translate(-18.000000, 0.000000)" fill="#FFFFFF" fill-rule="nonzero">
            <g id="g186" transform="translate(384.817000, 564.984000) scale(-1, 1) rotate(-180.000000) translate(-384.817000, -564.984000) translate(0.867000, 208.459000)">
                <path d="M609.10925,458.7654 C608.12195,568.9042 699.06325,621.7796 703.177,624.35755 C652.00195,699.2278 572.35975,709.48475 543.94745,710.69145 C476.2077,717.5477 411.7041,670.8155 377.368,670.8155 C343.0319,670.8155 289.9371,709.70415 233.7707,708.60715 C159.8329,707.51015 91.76405,665.6596 53.69815,599.5105 C-23.037,466.38955 34.1167,269.0941 108.8224,161.0396 C145.40735,108.21905 188.95825,48.7068 246.22165,50.9008 C301.40075,53.0948 322.24375,86.5533 388.83165,86.5533 C455.41955,86.5533 474.17825,50.9008 532.4838,51.94295 C591.77665,53.0948 629.40375,105.91535 665.71445,158.90045 C707.61985,220.22275 724.95245,279.57045 725.93975,282.6969 C724.62335,283.2454 610.31595,327.07055 609.10925,458.7654" id="path188"></path>
            </g>
            <path d="M500.4387,139.3374 C530.8252,102.533 551.3389,51.3572 545.6888,0.3487 C501.9152,2.1058 448.9332,29.5295 417.5032,66.3339 C389.3659,98.8614 364.6836,150.9674 371.3722,200.9374 C420.1905,204.7221 470.0472,176.0877 500.4387,139.3374" id="path190"></path>
        </g>
    </g>
</svg>