<svg xmlns="http://www.w3.org/2000/svg" width="27" height="27" viewBox="0 0 27 27">
    <defs>
        <style>
            .cls-1{fill:#ed5565}.cls-2{fill:#f6bb42;fill-rule:evenodd}.cls-3{filter:url(#Ellipse_1)}
        </style>
        <filter id="Ellipse_1" width="27" height="27" x="0" y="0" filterUnits="userSpaceOnUse">
            <feOffset dy="2"/>
            <feGaussianBlur result="blur" stdDeviation="1"/>
            <feFlood flood-opacity=".078"/>
            <feComposite in2="blur" operator="in"/>
            <feComposite in="SourceGraphic"/>
        </filter>
    </defs>
    <g id="Group_734" data-name="Group 734" transform="translate(3 .932)">
        <g id="circle_1_">
            <g id="Group_444" class="cls-3" data-name="Group 444" transform="translate(-3 -.93)">
                <circle id="Ellipse_1-2" cx="10.5" cy="10.5" r="10.5" class="cls-1" data-name="Ellipse 1" transform="translate(3 1)"/>
            </g>
        </g>
        <g id="star_14_" transform="translate(11.663 4.514)">
            <g id="Group_445" data-name="Group 445">
                <path id="Path_162" d="M95.686 37.177c.117-.1.085-.187-.069-.189l-.588-.006a.436.436 0 0 1-.376-.27l-.217-.608c-.053-.147-.132-.144-.176.005l-.181.617a.414.414 0 0 1-.36.28l-.577.016c-.154.005-.184.092-.068.193l.411.357a.513.513 0 0 1 .147.46l-.132.568c-.036.152.036.2.163.113l.479-.341a.459.459 0 0 1 .469-.015l.478.3c.132.082.2.025.161-.124l-.143-.5a.493.493 0 0 1 .133-.459z" class="cls-2" data-name="Path 162" transform="translate(-93.004 -35.995)"/>
            </g>
        </g>
        <g id="star_12_" transform="translate(11.663 12.791)">
            <g id="Group_446" data-name="Group 446">
                <path id="Path_163" d="M95.686 103.177c.117-.1.085-.187-.069-.189l-.588-.006a.436.436 0 0 1-.376-.27l-.217-.608c-.053-.147-.132-.144-.176.005l-.181.617a.413.413 0 0 1-.36.28l-.577.016c-.154 0-.184.092-.068.193l.411.357a.513.513 0 0 1 .147.46l-.135.564c-.036.152.036.2.163.113l.479-.341a.459.459 0 0 1 .469-.015l.478.3c.132.082.2.025.161-.124l-.143-.5a.492.492 0 0 1 .133-.459z" class="cls-2" data-name="Path 163" transform="translate(-93.004 -101.995)"/>
            </g>
        </g>
        <g id="star_10_" transform="translate(14.805 10.427)">
            <g id="Group_447" data-name="Group 447">
                <path id="Path_164" d="M120.736 84.327c.117-.1.085-.187-.069-.189l-.588-.006a.436.436 0 0 1-.376-.27l-.217-.608c-.053-.147-.132-.144-.176.005l-.181.617a.414.414 0 0 1-.36.28l-.577.016c-.154 0-.184.092-.068.193l.411.357a.513.513 0 0 1 .147.46l-.137.564c-.036.152.036.2.163.113l.479-.341a.459.459 0 0 1 .469-.015l.478.3c.132.082.2.025.161-.124l-.143-.5a.489.489 0 0 1 .133-.459z" class="cls-2" data-name="Path 164" transform="translate(-118.054 -83.145)"/>
            </g>
        </g>
        <g id="star_8_" transform="translate(14.805 7.273)">
            <g id="Group_448" data-name="Group 448">
                <path id="Path_165" d="M120.736 59.177c.117-.1.085-.187-.069-.189l-.588-.006a.436.436 0 0 1-.376-.27l-.217-.608c-.053-.147-.132-.144-.176.005l-.181.617a.414.414 0 0 1-.36.28l-.577.016c-.154 0-.184.092-.068.193l.411.357a.513.513 0 0 1 .147.46l-.137.564c-.036.152.036.2.163.113l.479-.341a.459.459 0 0 1 .469-.015l.478.3c.132.082.2.025.161-.124l-.143-.5a.489.489 0 0 1 .133-.459z" class="cls-2" data-name="Path 165" transform="translate(-118.054 -57.995)"/>
            </g>
        </g>
        <g id="star_1_" transform="translate(3.512 6.522)">
            <g id="Group_449" data-name="Group 449">
                <path id="Path_166" d="M35.78 54.7h-2.518a.246.246 0 0 1-.235-.168l-.779-2.358a.248.248 0 0 0-.469 0L31 54.53a.246.246 0 0 1-.235.168h-2.517a.242.242 0 0 0-.144.439l2.037 1.45a.241.241 0 0 1 .09.271l-.778 2.35a.245.245 0 0 0 .379.271l2.039-1.456a.251.251 0 0 1 .29 0l2.039 1.458a.245.245 0 0 0 .379-.271l-.78-2.353a.24.24 0 0 1 .09-.271l2.037-1.45a.242.242 0 0 0-.146-.436z" class="cls-2" data-name="Path 166" transform="translate(-28.001 -52.005)"/>
            </g>
        </g>
    </g>
</svg>
